<svg width="110" height="49" viewBox="0 0 110 49" fill="none" xmlns="http://www.w3.org/2000/svg">
<rect width="110" height="49" rx="24.5" fill="#EAAA32"/>
<g clip-path="url(#clip0_254_244)">
<path d="M28 15.9854C23.5805 15.9854 19.9851 19.5815 19.9851 24.0009C19.9851 28.4204 23.5805 32.0165 28 32.0165C32.4188 32.0165 36.0149 28.4211 36.0149 24.0009C36.0149 19.5807 32.4188 15.9854 28 15.9854Z" fill="white"/>
<path d="M27.9999 13.6291C27.1361 13.6291 26.436 12.929 26.436 12.0659V9.56386C26.436 8.70009 27.1361 8 27.9999 8C28.8637 8 29.5638 8.70009 29.5638 9.56386V12.0659C29.5638 12.929 28.863 13.6291 27.9999 13.6291Z" fill="white"/>
<path d="M27.9999 34.3701C27.1361 34.3701 26.436 35.0702 26.436 35.934V38.4353C26.436 39.2998 27.1361 39.9999 27.9999 39.9999C28.8637 39.9999 29.5638 39.2998 29.5638 38.4353V35.934C29.5638 35.0702 28.863 34.3701 27.9999 34.3701Z" fill="white"/>
<path d="M35.3326 16.667C34.7225 16.0562 34.7225 15.0662 35.3326 14.4554L37.1019 12.6861C37.712 12.076 38.7026 12.076 39.3134 12.6861C39.9242 13.2969 39.9242 14.2875 39.3134 14.8976L37.5441 16.667C36.934 17.2778 35.9441 17.2778 35.3326 16.667Z" fill="white"/>
<path d="M20.6667 31.3341C20.0559 30.7226 19.066 30.7226 18.4552 31.3341L16.6859 33.1028C16.0758 33.7129 16.0751 34.7042 16.6859 35.3143C17.2967 35.9244 18.2873 35.9244 18.8974 35.3143L20.6667 33.5442C21.2775 32.9341 21.2775 31.9435 20.6667 31.3341Z" fill="white"/>
<path d="M38.3701 23.9999C38.3701 23.1361 39.0702 22.436 39.934 22.436H42.436C43.2998 22.436 43.9999 23.1361 43.9999 23.9999C43.9999 24.8637 43.2998 25.5631 42.436 25.5631H39.934C39.0702 25.5631 38.3701 24.8637 38.3701 23.9999Z" fill="white"/>
<path d="M17.6291 23.9999C17.6291 23.1361 16.929 22.436 16.0652 22.436H13.5639C12.7001 22.436 12 23.1361 12 23.9999C12 24.8637 12.7001 25.5631 13.5639 25.5631H16.0659C16.929 25.5631 17.6291 24.8637 17.6291 23.9999Z" fill="white"/>
<path d="M35.3326 31.334C35.9434 30.7239 36.934 30.7239 37.5441 31.334L39.3135 33.1034C39.9243 33.7128 39.9243 34.7041 39.3135 35.3142C38.7027 35.9243 37.7128 35.9243 37.102 35.3142L35.3326 33.5448C34.7218 32.934 34.7218 31.9441 35.3326 31.334Z" fill="white"/>
<path d="M20.6668 16.6668C21.2776 16.056 21.2776 15.0661 20.6668 14.4553L18.8974 12.6866C18.2866 12.0758 17.2967 12.0758 16.6859 12.6866C16.0751 13.2967 16.0751 14.2873 16.6859 14.8974L18.4552 16.6668C19.066 17.2783 20.0559 17.2783 20.6668 16.6668Z" fill="white"/>
</g>
<defs>
<clipPath id="clip0_254_244">
<rect width="32" height="32" fill="white" transform="translate(12 8)"/>
</clipPath>
</defs>
</svg>
